#!OML:ASF F:\VICON\USERDATA\INSTALL\rory3\rory3.ASF
:FULLY-SPECIFIED
:DEGREES
898
root 5.23411 16.955 1.78567 7.17368 -15.6769 -6.61948
lowerback 20.8709 -0.535637 4.21635
upperback 5.24728 0.198808 1.05023
thorax -5.93655 0.0291271 -1.32002
lowerneck -14.0173 -0.42564 -2.50478
upperneck 37.5102 0.509123 -1.56314
head 15.5642 -0.438588 -0.156291
rclavicle -2.52457e-014 -1.43125e-014
rhumerus -34.8325 -8.94587 -16.9228
rradius 35.2424
rwrist 4.20292
rhand -20.5569 -46.1937
rfingers 7.12502
rthumb 5.80214 -76.0942
lclavicle -2.52457e-014 -1.43125e-014
lhumerus -36.1564 8.49742 12.6955
lradius 28.5889
lwrist 16.5603
lhand -25.6174 -23.5396
lfingers 7.12502
lthumb 0.915289 6.43815
rfemur -99.674 0.711226 27.8397
rtibia 95.5078
rfoot 49.0161 1.43439
rtoes -1.97652
lfemur -28.6178 4.96138 -24.2126
ltibia 40.9325
lfoot -17.0681 11.551
ltoes 16.2202
899
root 5.23436 16.9578 1.78948 7.15386 -15.6888 -6.62377
lowerback 20.8657 -0.531072 4.23308
upperback 5.22949 0.20912 1.05559
thorax -5.95249 0.0335185 -1.32635
lowerneck -14.031 -0.476129 -2.66119
upperneck 37.5599 0.416386 -1.38807
head 15.5919 -0.476357 -0.0699367
rclavicle 1.76918e-014 -2.62396e-014
rhumerus -34.8672 -8.81925 -16.9208
rradius 35.2925
rwrist 4.07834
rhand -20.7238 -46.3519
rfingers 7.12502
rthumb 5.64101 -76.2568
lclavicle 1.76918e-014 -2.62396e-014
lhumerus -36.1604 8.48474 12.6922
lradius 28.522
lwrist 16.5219
lhand -25.538 -23.5353
lfingers 7.12502
lthumb 0.991946 6.44218
rfemur -99.6319 0.69645 27.843
rtibia 95.5121
rfoot 48.9426 1.28213
rtoes -2.18092
lfemur -28.579 4.98447 -24.2127
ltibia 40.9486
lfoot -17.1473 11.5415
ltoes 16.1582
900
root 5.23403 16.9576 1.79361 7.14304 -15.6731 -6.58578
lowerback 20.8384 -0.529017 4.21841
upperback 5.22078 0.208154 1.06037
thorax -5.94789 0.0333055 -1.3126
lowerneck -14.0411 -0.509405 -2.77467
upperneck 37.5854 0.366156 -1.29178
head 15.6072 -0.500516 -0.0173222
rclavicle -1.80894e-014 1.59028e-015
rhumerus -34.8642 -8.76217 -16.9042
rradius 35.3209
rwrist 4.04597
rhand -20.632 -46.5401
rfingers 7.12502
rthumb 5.72964 -76.4427
lclavicle -1.80894e-014 1.59028e-015
lhumerus -36.1897 8.43744 12.7408
lradius 28.5897
lwrist 16.5378
lhand -25.6754 -22.896
lfingers 7.12502
lthumb 0.85923 7.08198
rfemur -99.654 0.647712 27.817
rtibia 95.5358
rfoot 48.9302 1.23576
rtoes -2.27404
lfemur -28.5614 4.9992 -24.2591
ltibia 40.9531
lfoot -17.1847 11.4971
ltoes 16.0873
901
root 5.23322 16.9563 1.79416 7.09584 -15.6406 -6.55126
lowerback 20.8551 -0.550366 4.20558
upperback 5.24584 0.176893 1.05026
thorax -5.93106 0.0188282 -1.3083
lowerneck -14.098 -0.51619 -2.84824
upperneck 37.5635 0.336218 -1.17344
head 15.6095 -0.507007 0.0413028
rclavicle -3.57812e-014 9.14409e-015
rhumerus -34.8287 -8.74018 -16.9548
rradius 35.3505
rwrist 3.99979
rhand -20.1574 -46.8012
rfingers 7.12502
rthumb 6.18787 -76.6909
lclavicle -3.57812e-014 9.14409e-015
lhumerus -36.2259 8.47847 12.7165
lradius 28.6264
lwrist 16.4981
lhand -25.7251 -22.4676
lfingers 7.12502
lthumb 0.811278 7.51061
rfemur -99.6398 0.602503 27.7845
rtibia 95.5496
rfoot 48.9518 1.10316
rtoes -2.09494
lfemur -28.5237 4.99449 -24.288
ltibia 40.9582
lfoot -17.1527 11.4865
ltoes 16.005
902
root 5.23287 16.9562 1.79305 7.06482 -15.6093 -6.57208
lowerback 20.918 -0.577257 4.23621
upperback 5.23971 0.152316 1.05473
thorax -5.97162 0.00576806 -1.31463
lowerneck -14.1178 -0.517464 -2.87426
upperneck 37.5663 0.328273 -1.13482
head 15.6156 -0.508989 0.0609681
rclavicle -5.1684e-015 -3.57812e-015
rhumerus -34.8715 -8.63624 -17.0193
rradius 35.5758
rwrist 4.15913
rhand -19.4946 -46.7707
rfingers 7.12502
rthumb 6.82773 -76.6406
lclavicle -5.1684e-015 -3.57812e-015
lhumerus -36.2584 8.51905 12.6626
lradius 28.5831
lwrist 16.4225
lhand -25.5293 -23.5426
lfingers 7.12502
lthumb 1.00039 6.43475
rfemur -99.599 0.575152 27.8252
rtibia 95.5255
rfoot 48.8943 1.44574
rtoes -2.79632
lfemur -28.4994 5.01421 -24.2618
ltibia 40.9717
lfoot -17.1306 11.5004
ltoes 15.9448
903
root 5.23217 16.9552 1.79235 7.08363 -15.5539 -6.64727
lowerback 20.9331 -0.602783 4.31821
upperback 5.22256 0.139846 1.08022
thorax -5.99829 -0.00171793 -1.33057
lowerneck -14.0557 -0.50098 -2.79883
upperneck 37.5903 0.381082 -1.27753
head 15.6131 -0.496179 -0.00456139
rclavicle -2.5842e-014 7.15625e-015
rhumerus -34.9578 -8.47007 -17.093
rradius 35.9023
rwrist 4.22575
rhand -19.0903 -46.5356
rfingers 7.12502
rthumb 7.21801 -76.3925
lclavicle -2.5842e-014 7.15625e-015
lhumerus -36.2606 8.50314 12.646
lradius 28.5457
lwrist 16.3998
lhand -24.9457 -26.7108
lfingers 7.12502
lthumb 1.56405 3.26318
rfemur -99.5839 0.531711 27.9436
rtibia 95.4893
rfoot 48.8453 1.87991
rtoes -3.47662
lfemur -28.5101 5.06704 -24.1884
ltibia 40.9889
lfoot -17.1225 11.4527
ltoes 15.8878
904
root 5.23214 16.9548 1.79267 7.09636 -15.5004 -6.62657
lowerback 20.8885 -0.619756 4.34376
upperback 5.22761 0.119512 1.06303
thorax -5.97037 -0.0111218 -1.35848
lowerneck -14.0153 -0.503322 -2.78117
upperneck 37.5479 0.376704 -1.29448
head 15.5822 -0.496853 -0.0151613
rclavicle -3.97569e-016 -6.75868e-015
rhumerus -35.0265 -8.36708 -17.1628
rradius 36.0799
rwrist 4.01129
rhand -18.9045 -46.5461
rfingers 7.12502
rthumb 7.3973 -76.3968
lclavicle -3.97569e-016 -6.75868e-015
lhumerus -36.2081 8.52687 12.62
lradius 28.4669
lwrist 16.4178
lhand -25.3609 -24.49
lfingers 7.12502
lthumb 1.16304 5.48659
rfemur -99.6298 0.457394 27.9497
rtibia 95.4856
rfoot 48.8899 1.96139
rtoes -3.07296
lfemur -28.5215 5.05612 -24.214
ltibia 40.9796
lfoot -17.1165 11.3794
ltoes 15.8365
905
root 5.23192 16.955 1.79023 7.10193 -15.4695 -6.55091
lowerback 20.9066 -0.629803 4.28387
upperback 5.20779 0.0939186 1.03355
thorax -6.00303 -0.0236161 -1.34963
lowerneck -14.0514 -0.513394 -2.80109
upperneck 37.5166 0.337876 -1.21246
head 15.5749 -0.504239 0.0169892
rclavicle -1.68967e-014 -9.54166e-015
rhumerus -35.0343 -8.35514 -17.1992
rradius 36.1046
rwrist 3.94488
rhand -18.5971 -46.5926
rfingers 7.12502
rthumb 7.69404 -76.4327
lclavicle -1.68967e-014 -9.54166e-015
lhumerus -36.1827 8.51887 12.5959
lradius 28.3737
lwrist 16.4083
lhand -24.8339 -27.5155
lfingers 7.12502
lthumb 1.67194 2.45768
rfemur -99.6937 0.413972 27.8841
rtibia 95.4685
rfoot 49.0302 1.78758
rtoes -1.88271
lfemur -28.5592 5.01507 -24.2857
ltibia 40.9495
lfoot -17.0997 11.253
ltoes 15.9598
906
root 5.23161 16.9576 1.7902 7.09913 -15.4838 -6.46824
lowerback 20.9111 -0.618951 4.18039
upperback 5.19687 0.0861106 1.01913
thorax -6.01834 -0.0266615 -1.30433
lowerneck -14.1605 -0.510103 -2.78076
upperneck 37.5704 0.348093 -1.22875
head 15.628 -0.500601 0.0073531
rclavicle -3.3197e-014 -1.07344e-014
rhumerus -35.0024 -8.34035 -17.2086
rradius 35.9986
rwrist 3.72825
rhand -19.1403 -46.4238
rfingers 7.12502
rthumb 7.16968 -76.2823
lclavicle -3.3197e-014 -1.07344e-014
lhumerus -36.2022 8.43311 12.6429
lradius 28.3932
lwrist 16.4563
lhand -24.3406 -30.1962
lfingers 7.12502
lthumb 2.14842 -0.227233
rfemur -99.7203 0.389849 27.8243
rtibia 95.4485
rfoot 49.1549 1.81069
rtoes -1.34592
lfemur -28.557 5.00604 -24.3726
ltibia 40.9057
lfoot -17.0787 11.1948
ltoes 16.0957
907
root 5.23175 16.9603 1.79205 7.1134 -15.4849 -6.43008
lowerback 20.8436 -0.608345 4.15463
upperback 5.18305 0.0919536 1.0226
thorax -5.99797 -0.0231835 -1.28748
lowerneck -14.1348 -0.518157 -2.79122
upperneck 37.5868 0.360406 -1.28565
head 15.6306 -0.504854 -0.0130673
rclavicle 2.0276e-014 -6.75868e-015
rhumerus -34.992 -8.23214 -17.1929
rradius 35.8715
rwrist 3.74909
rhand -19.8863 -46.0541
rfingers 7.12502
rthumb 6.44957 -75.9359
lclavicle 2.0276e-014 -6.75868e-015
lhumerus -36.2345 8.32801 12.7146
lradius 28.5158
lwrist 16.6315
lhand -24.4734 -27.6645
lfingers 7.12502
lthumb 2.0202 2.30571
rfemur -99.7486 0.349671 27.8166
rtibia 95.4301
rfoot 49.1549 2.1588
rtoes -1.71097
lfemur -28.557 5.02089 -24.4221
ltibia 40.8786
lfoot -17.0351 11.2662
ltoes 15.932
908
root 5.23103 16.9592 1.78879 7.16178 -15.4369 -6.43233
lowerback 20.8302 -0.619963 4.16534
upperback 5.1105 0.0832072 1.04151
thorax -6.07019 -0.0292711 -1.27083
lowerneck -13.9791 -0.531451 -2.83814
upperneck 37.5669 0.351501 -1.29654
head 15.5837 -0.516044 -0.0102548
rclavicle 3.53837e-014 -3.97569e-016
rhumerus -35.0176 -8.00119 -17.2182
rradius 35.9427
rwrist 4.16435
rhand -19.6657 -45.8313
rfingers 7.12502
rthumb 6.66252 -75.7065
lclavicle 3.53837e-014 -3.97569e-016
lhumerus -36.2081 8.25301 12.7262
lradius 28.4543
lwrist 16.7248
lhand -24.8426 -24.7704
lfingers 7.12502
lthumb 1.6636 5.20287
rfemur -99.8089 0.311634 27.834
rtibia 95.3837
rfoot 49.1488 2.10964
rtoes -1.7786
lfemur -28.6398 5.04617 -24.421
ltibia 40.8708
lfoot -17.0017 11.2264
ltoes 15.8289
909
root 5.23001 16.9562 1.78513 7.19752 -15.3902 -6.44334
lowerback 20.8957 -0.636554 4.16935
upperback 5.04034 0.0703058 1.05694
thorax -6.18131 -0.0380803 -1.25292
lowerneck -14.0079 -0.542311 -2.845
upperneck 37.621 0.340087 -1.29967
head 15.618 -0.523372 -0.0129311
rclavicle -2.44505e-014 2.78299e-015
rhumerus -35.0599 -7.78753 -17.2786
rradius 36.0596
rwrist 4.01033
rhand -19.5057 -45.9995
rfingers 7.12502
rthumb 6.817 -75.8697
lclavicle -2.44505e-014 2.78299e-015
lhumerus -36.1486 8.28914 12.692
lradius 28.2918
lwrist 16.5796
lhand -25.192 -26.264
lfingers 7.12502
lthumb 1.32612 3.71165
rfemur -99.8405 0.289409 27.8375
rtibia 95.3363
rfoot 49.2019 1.61884
rtoes -1.29173
lfemur -28.7029 5.04411 -24.4058
ltibia 40.8658
lfoot -17.0249 11.1584
ltoes 15.8717
